<svg id="Layer_1" data-name="Layer 1" xmlns="http://www.w3.org/2000/svg" viewBox="0 0 90 90"><defs><style>.cls-1{opacity:0.05;}.cls-2{fill:#92de63;}.cls-3{fill:#169b62;}</style></defs><title>Access</title><g class="cls-1"><circle class="cls-2" cx="45" cy="45" r="45"/></g><path class="cls-3" d="M57.79,38.84h-.42V27.46a13,13,0,1,0-26,0,.8.8,0,0,0,1.6,0,11.38,11.38,0,0,1,22.76,0V38.84H31.21A6.21,6.21,0,0,0,25,45V64.79A6.21,6.21,0,0,0,31.21,71H57.79A6.21,6.21,0,0,0,64,64.79V45A6.21,6.21,0,0,0,57.79,38.84Zm4.6,26a4.61,4.61,0,0,1-4.6,4.6H31.21a4.61,4.61,0,0,1-4.6-4.6V45a4.61,4.61,0,0,1,4.6-4.6H57.79A4.61,4.61,0,0,1,62.4,45Z"/><path class="cls-2" d="M50.11,51.93a5.61,5.61,0,1,0-6.52,5.53v5.48a.8.8,0,1,0,1.6,0V57.49A5.61,5.61,0,0,0,50.11,51.93Zm-5.61,4a4,4,0,1,1,4-4A4,4,0,0,1,44.5,55.94Z"/></svg>