<svg id="Logo" xmlns="http://www.w3.org/2000/svg" viewBox="0 0 78.51 28.35"><defs><style>.cls-1{fill:#0072bb;}.cls-2,.cls-3{fill:#1d1d1b;}.cls-3{fill-rule:evenodd;}</style></defs><title>AEG_COL_PRO</title><path class="cls-1" d="M281.84,422.52h-4.19l2.13-6.52c.65,2.17,1.43,4.35,2.06,6.52" transform="translate(-258.69 -407.65)"/><polyline class="cls-2" points="36.08 16.81 27.82 16.81 27.82 12.59 33.7 12.59 33.7 10.13 27.76 10.13 27.76 6.96 35.48 6.96 35.48 4.39 24.91 4.39 24.91 11.27 27.64 19.48 36.08 19.48 36.08 16.81"/><path class="cls-3" d="M334.37,422.44a1.74,1.74,0,0,0-.17-.71h0l-6.14-9.67h-2.53v15.08h2.71l0-10.07s.08.18.26.51,6,9.56,6,9.56h2.71V412.06h-2.84v10.38" transform="translate(-258.69 -407.65)"/><polyline class="cls-2" points="69.56 23.23 69.56 24.98 29.41 24.98 28.84 23.23 69.56 23.23"/><path class="cls-2" d="M302,421.36h3.61a3.71,3.71,0,0,1-3.55,3.39c-2.1,0-4.11-1.45-4.26-5s2-5.4,4.16-5.4,3.28,2.17,3.62,2.75L308,416a6.29,6.29,0,0,0-6.18-4.23c-5,0-6.89,3.87-6.89,7.91,0,5.19,3.39,7.62,6.61,7.7,2.82.07,3.54-1,4.14-1.64v1.37H308v-8.23h-6v2.49" transform="translate(-258.69 -407.65)"/><polyline class="cls-1" points="25.68 22.16 6.98 28.35 0 7.02 21.17 0 22.62 4.39 19.65 4.39 14.76 19.48 17.65 19.48 18.38 17.48 24.14 17.48 25.68 22.16"/><path class="cls-3" d="M312.67,419.54c0-4.17,2.45-5.35,4-5.35s4.17,1.25,4.12,5.42-2.51,5-4.12,5-4-.94-4-5.1m-3,0c0,5.31,3.59,7.77,7,7.77,2.2,0,7-1.2,7-7.77s-5.12-7.84-7-7.84S309.71,413,309.71,419.54Z" transform="translate(-258.69 -407.65)"/></svg>