<svg id="Layer_1" data-name="Layer 1" xmlns="http://www.w3.org/2000/svg" viewBox="0 0 298.51 118.08"><defs><style>.cls-1{fill:#fff;}</style></defs><title>aol-logo-vector-reverse</title><path class="cls-1" d="M314,212.85,268.43,328.51H299.3l6.1-16.72h40.17l5.63,16.72h31.18L337.28,212.85Zm-.47,75.48L325.64,248l12.11,40.32Zm178.58,40.17h26.16V212.85H492.11ZM431,238.73c-31.42,0-46.51,24.84-46.51,46.1s15.09,46.1,46.51,46.1,46.5-24.85,46.5-46.1S462.42,238.73,431,238.73Zm0,68c-11.2,0-20.68-9.22-20.68-21.87S419.8,263,431,263s20.68,9.22,20.68,21.88S442.19,306.71,431,306.71Zm118.55-12.17a17.39,17.39,0,1,0,17.39,17.39A17.4,17.4,0,0,0,549.55,294.54Z" transform="translate(-268.43 -212.85)"/></svg>