<svg id="Layer_1" data-name="Layer 1" xmlns="http://www.w3.org/2000/svg" viewBox="0 0 76.07 53.05"><defs><style>.cls-1{fill:#0069b4;}.cls-1,.cls-2,.cls-3{fill-rule:evenodd;}.cls-2{fill:#ffd500;}.cls-3{fill:#64b445;}</style></defs><title>Aviva</title><polygon class="cls-1" points="71.2 35.32 71.2 33.68 70.61 33.68 70.61 33.42 72.17 33.42 72.17 33.68 71.58 33.68 71.58 35.32 71.2 35.32 71.2 35.32"/><path class="cls-1" d="M86,59.2h-.38V57.72h0c-.21.53-.43,1-.64,1.48h-.21c-.2-.48-.41-1-.61-1.48h0V59.2h-.31V57.3h.47c.2.47.51,1.21.58,1.45h0c.09-.25.43-1,.65-1.45H86v1.9Z" transform="translate(-11.3 -23.88)"/><path class="cls-1" d="M46.39,62.73c.32.06,1.46.39,1.46,1.2v13h3.86V62.26H46.39v.46Z" transform="translate(-11.3 -23.88)"/><path class="cls-1" d="M16,62.26v.46c.47.1,1.48.38,1.07,1.3L11.3,76.93h3l1.8-4h6.38l1.58,4h4L22.4,62.26Zm1,8.82,2.59-5.77,2.26,5.77Z" transform="translate(-11.3 -23.88)"/><path class="cls-1" d="M75.25,62.26v.46c.47.1,1.48.38,1.07,1.3L70.56,76.93h3l1.8-4h6.38l1.58,4h4L81.65,62.26Zm1,8.82,2.59-5.77,2.26,5.77Z" transform="translate(-11.3 -23.88)"/><path class="cls-1" d="M65,76.93l6.11-14.67H68.19L63.71,73,59.44,62.26H54v.46a2,2,0,0,1,1.65,1.2l5.16,13Z" transform="translate(-11.3 -23.88)"/><path class="cls-1" d="M38.18,76.93l6.11-14.67H41.4L36.92,73,32.65,62.26H27.22v.46a2,2,0,0,1,1.65,1.2l5.15,13Z" transform="translate(-11.3 -23.88)"/><path class="cls-2" d="M59.5,50.32,56.93,23.88h0L54.33,50.76q2.53-.28,5.17-.44Z" transform="translate(-11.3 -23.88)"/><path class="cls-3" d="M65.78,50.13V23.88H56.93L59.5,50.32c2-.12,4.14-.19,6.28-.19Z" transform="translate(-11.3 -23.88)"/><path class="cls-1" d="M54.33,50.76l2.61-26.88H33.79V55.8a72.27,72.27,0,0,1,20.53-5Z" transform="translate(-11.3 -23.88)"/></svg>