<svg id="Layer_1" data-name="Layer 1" xmlns="http://www.w3.org/2000/svg" viewBox="0 0 432 65.28"><title>blackrock</title><polygon points="64.45 12.71 64.45 55.95 88.8 55.95 85.5 64.46 53.85 64.46 53.85 12.71 64.45 12.71"/><path d="M322.13,218.68c6.8-2.65,14.68-8.28,14.68-18.13,0-11.9-10.37-18-25.19-18H292.39V247H303.7V220.42h6.73L328.23,247h13Zm-12.64-6.42H303.7v-22l7,0c9.49,0,14.42,3,14.42,10.83C325.14,209.65,319,212.26,309.49,212.26Z" transform="translate(-54 -182.52)"/><path d="M162.8,195.23l1.87,4L144.59,247h9.86l4.23-10.5h22.75L186,247h11.62l-22.77-51.74ZM162,228.53l7.79-19.11,8.08,19.11Z" transform="translate(-54 -182.52)"/><path d="M88,212.41c5.7-1.79,11.08-6.08,11.08-14.14,0-15.75-18.78-15.75-24.94-15.75H54V247H73.41c11,0,29.37-2.87,29.37-18.61,0-8.79-5.12-14.34-14.75-16M72.72,190.26c8.47,0,14.44,1,14.44,8.77,0,10.28-10.52,9.72-15.78,9.72H65.63V190.24ZM73,238.48l-7.36,0v-21.3h6.69c10.17,0,18.51,1.49,18.51,10.71C90.83,236.73,84.09,238.48,73,238.48Z" transform="translate(-54 -182.52)"/><path d="M243.64,195.16h10.6V247h-10.6Zm33,0L254.86,220,276.71,247h12.46l-22.29-27.68,20.53-24.11Z" transform="translate(-54 -182.52)"/><path d="M195.43,219.42c0,17,10.31,28.38,24.62,28.38,7.57,0,12.55-1.73,17.4-5.16l-2.49-5.2a25.24,25.24,0,0,1-12.23,3.08c-9.2,0-15.83-6.81-15.83-20.85,0-11.27,4.16-18.07,12.32-18.07,4.22,0,7.8,1.68,9.33,6.07l9.23-2.58c-1-3.51-5.66-10.65-19.19-10.65-12.42,0-23.16,8.41-23.16,25" transform="translate(-54 -182.52)"/><path d="M440.47,195.16h10.6V247h-10.6Zm33,0L451.68,220,473.54,247H486l-22.29-27.68,20.53-24.11Z" transform="translate(-54 -182.52)"/><path d="M391.92,219.42c0,17,10.31,28.38,24.62,28.38,7.57,0,12.55-1.73,17.4-5.16l-2.49-5.2a25.24,25.24,0,0,1-12.23,3.08c-9.2,0-15.83-6.81-15.83-20.85,0-11.27,4.17-18.07,12.33-18.07,4.21,0,7.8,1.68,9.32,6.07l9.23-2.58c-1-3.51-5.66-10.65-19.19-10.65-12.42,0-23.16,8.41-23.16,25" transform="translate(-54 -182.52)"/><path d="M363.44,194.42c-14.08,0-24.24,8.49-24.24,26.73s9.74,26.65,24.24,26.65,24.25-8.46,24.25-26.65S377.52,194.42,363.44,194.42Zm0,46.13c-10.83,0-13.22-8.78-13.22-19.39s2.45-19.85,13.22-19.85,13.23,9.23,13.23,19.85S374.27,240.55,363.44,240.55Z" transform="translate(-54 -182.52)"/></svg>