<svg id="Layer_1" data-name="Layer 1" xmlns="http://www.w3.org/2000/svg" viewBox="0 0 90 90"><defs><style>.cls-1{opacity:0.05;}.cls-2{fill:#92de63;}.cls-3{fill:#169b62;}</style></defs><title>Consolidate</title><g class="cls-1"><circle class="cls-2" cx="45" cy="45" r="45"/></g><path class="cls-3" d="M69.69,52.69H55.32v-6a3.91,3.91,0,1,0,0-7V33.31H69.69V32.09H55.32v-5.2a.61.61,0,0,0-1.06-.41,2.69,2.69,0,1,1,0-3.67.61.61,0,0,0,1.08-.43V17.72a.61.61,0,1,0-1.22,0v3.46a3.91,3.91,0,1,0,0,6.92v4H46.79a.61.61,0,0,0-.45,1,2.69,2.69,0,1,1-3.93,0,.61.61,0,0,0-.45-1H34.72V28.15a3.91,3.91,0,1,0,0-7V17.72a.61.61,0,0,0-1.22,0v4.62a.61.61,0,0,0,1,.43,2.69,2.69,0,1,1,0,3.78.66.66,0,0,0-.45-.18.61.61,0,0,0-.61.61v5.11H19.14v1.22H33.5V39.7a3.91,3.91,0,1,0,0,6.92v6.07H19.14a.61.61,0,0,0,0,1.22H33.5v6.63a.61.61,0,0,0,1.06.43,2.69,2.69,0,1,1,0,3.8l0,0a.61.61,0,0,0-1,.43v3.1a.61.61,0,0,0,1.22,0V66.37a3.91,3.91,0,1,0,0-7V53.91h7.52a.61.61,0,0,0,.45-1,2.69,2.69,0,1,1,4,0,.61.61,0,0,0,.45,1h7v5.5a3.91,3.91,0,1,0,0,6.92v1.94a.61.61,0,0,0,1.22,0V65.12a.61.61,0,0,0-1.08-.41,2.69,2.69,0,1,1,0-3.7.61.61,0,0,0,1.09-.43V53.91H69.69a.61.61,0,1,0,0-1.22Zm-21.45,0a3.91,3.91,0,1,0-7.12,0h-6.4V45.42s0,0,0-.06A.61.61,0,0,0,33.64,45a2.69,2.69,0,1,1,0-3.7.61.61,0,0,0,1.08-.44V33.31h6.11a3.91,3.91,0,1,0,7.09,0H54.1v7.53a.61.61,0,0,0,1.06.43,2.69,2.69,0,1,1,0,3.81l0,0a.61.61,0,0,0-1,.43v7.22Z"/><path class="cls-2" d="M44.5,15a28,28,0,1,0,28,28A28,28,0,0,0,44.5,15Zm0,54.64A26.64,26.64,0,1,1,71.14,43,26.67,26.67,0,0,1,44.5,69.64Z"/></svg>