<svg id="Layer_1" data-name="Layer 1" xmlns="http://www.w3.org/2000/svg" viewBox="0 0 90 90"><defs><style>.cls-1{opacity:0.05;}.cls-2{fill:#92de63;}.cls-3{fill:#169b62;}</style></defs><title>FeesCharges</title><g class="cls-1"><circle class="cls-2" cx="45" cy="45" r="45"/></g><path class="cls-2" d="M23.92,62.8a28.59,28.59,0,0,1-4.76-8.67c-.4-1.17-2.27-.67-1.87.51a31.28,31.28,0,0,0,5.26,9.52c.78,1,2.14-.41,1.37-1.37Z"/><path class="cls-2" d="M38.1,72a29.19,29.19,0,0,1-8.92-4.26c-1-.72-2,1-1,1.67a30.75,30.75,0,0,0,9.38,4.46A1,1,0,0,0,38.1,72Z"/><path class="cls-2" d="M74.94,45.38a1,1,0,0,0-1.94,0A28,28,0,0,1,47.34,72.9l4.31-5.27c.78-1-.58-2.34-1.37-1.37l-5.75,7a1.08,1.08,0,0,0-.13.2.79.79,0,0,0,.13,1.17h0a.84.84,0,0,0,.18.15l6.85,5.6c1,.78,2.34-.58,1.37-1.37l-5.17-4.23A30,30,0,0,0,74.94,45.38Z"/><path class="cls-2" d="M68.39,29.68a29.15,29.15,0,0,1,4,9.3c.29,1.21,2.16.7,1.87-.51a30.72,30.72,0,0,0-4.22-9.76c-.68-1-2.36-.07-1.67,1Z"/><path class="cls-2" d="M55.32,19.29a28.5,28.5,0,0,1,8.26,5c.94.81,2.32-.56,1.37-1.37a31.26,31.26,0,0,0-9.12-5.46c-1.16-.45-1.67,1.42-.51,1.87Z"/><path class="cls-2" d="M50,16.66a1,1,0,0,0-.25-.46L43.5,9.64c-.86-.9-2.23.47-1.37,1.37l4.64,4.84A29.54,29.54,0,0,0,15.86,47.24c.07,1.24,2,1.25,1.94,0a27.62,27.62,0,0,1,29-29.44l-4.9,4.69c-.9.86.47,2.23,1.37,1.37l6.56-6.28A.85.85,0,0,0,50,16.66Z"/><path class="cls-3" d="M54.48,56.05h-15c3.1-2.68,5.74-6.59,4.22-10.56l-.11-.28h4.5a1,1,0,0,0,0-1.94H42.67a14.74,14.74,0,0,1-1.9-5.11c-.37-3.32,2.07-5.23,5.24-5.33,3.95-.12,6.78,2.26,6.86,6.29a1,1,0,0,0,1.94,0c-.08-3.59-1.83-6.61-5.34-7.75a9.45,9.45,0,0,0-8.56,1.24c-2.56,2.06-2.41,5.5-1.46,8.35a16.81,16.81,0,0,0,1,2.31H36.59a1,1,0,0,0,0,1.94h4.85a5.86,5.86,0,0,1,.44,4.46c-.95,2.69-3.42,5-5.77,6.51a1,1,0,0,0,.49,1.8H54.48A1,1,0,0,0,54.48,56.05Z"/></svg>