<svg xmlns="http://www.w3.org/2000/svg" id="profile-pension-logo" height="54" viewBox="0 0 574 232"><path d="M44.1 62h-6.27v29.4c0 3.05 1.1 5.4 4.16 6.8a58.12 58.12 0 0 0 10.1 2.22v3.2H0v-3.2c2.5-.14 8.88-1.1 10.54-1.8 3.33-1.25 4.16-3.75 4.16-6.8V21.5c0-3.05-.7-5.4-4.16-6.8A64.93 64.93 0 0 0 0 12.06v-3.2h50.07c23.58 0 35.37 7.5 35.37 23.6C85.44 53.26 65.34 62 44.1 62zm-1.8-49h-4.47v44.52h2.5c15.12 0 20.25-9.15 20.25-21.77C60.6 21.77 55.9 13 42.3 13z" class="st1"></path><path d="M135.08 62.55c-6 0-10.26-3.33-10.26-9 0-2.5 1.25-5 1.66-6.66-6 .1-9.85 4.7-11 6.6v39.4c0 3 1.4 5.1 3.74 6.1s7.07 1.5 9.15 1.6v2.9h-42.3v-2.9a18.9 18.9 0 0 0 5.83-1.1c2.64-1 3.47-3.1 3.47-6.1v-41a9.93 9.93 0 0 0-3.6-7.4 15.13 15.13 0 0 0-6.95-2v-2.8l29.68-1.7 1 1v9.3h.33c5.55-7.2 11.23-10.8 17.9-10.8 6.92 0 12.06 5 12.06 12.6-.1 6.5-4.4 11.9-10.8 11.9zm46.32 43.13c-18.72 0-34.12-12.9-34.12-34.12 0-19.83 13.45-33.84 34.67-33.84 21.64 0 34.4 14 34.4 33.42s-11.8 34.54-34.95 34.54zm.7-64.63c-10.83 0-12.35 16.37-12.35 29.68 0 16.64 2.36 31.34 12.2 31.34 9.44 0 12.08-14.3 12.08-31.07 0-14.55-1.68-29.95-11.94-29.95zm68.22 4.58v47.3a8.86 8.86 0 0 0 1 4.7c1.1 1.8 3.33 2.5 6.52 3.06v2.9h-37.2v-2.9a19 19 0 0 0 6-1.2c2.5-1 3.6-3.1 3.6-6.1V45.6H216.9v-6h13.3v-2.5c0-11.23 3.33-20.94 9.43-27.2 5.55-5.7 14.15-10 27.6-10 16.92 0 23.3 6.8 23.3 15 0 4.18-3.47 10.4-10.12 10.4-5.6 0-10.1-3.03-10.1-9 0-3.2 1.1-5.25 2-9.3 0-1.63-4.6-3.44-7.2-3.44-7.9 0-14.1 8.13-14.8 27.13-.1 2.6 0 8.9 0 8.9h18.9l20.57-1.1 1 1v53.3c0 2.9 1.25 5.1 3.74 6.2a14.75 14.75 0 0 0 6 1.6v2.9h-37v-2.9c2.65-.2 4.3-.6 5.4-1.6 1.4-1.26 1.8-3.06 1.8-5.7v-41a7.82 7.82 0 0 0-3.3-6.8zm50.5 57.97v-2.9a18.9 18.9 0 0 0 5.83-1.12c2.64-1 3.6-3.05 3.6-6.1V15.26a9.57 9.57 0 0 0-3.73-8c-1.66-1.1-7.07-2.5-9.57-2.64V1.8l32.3-1.66 1 1v91.68c0 3.05 1.12 5.13 3.62 6.24a18.8 18.8 0 0 0 6 1.66v2.9zm75 2.08c-22.74 0-33.3-15.26-33.3-34.4 0-17.9 11.4-33.56 32.33-33.56 21.22 0 28.57 13.18 28.57 27.6v1.94h-39.25c-.14 0 0 1.53 0 1.66 0 16.37 5.13 28.43 18.6 28.43 8.45 0 14.4-3.05 19.4-12.76l2.78 2c-5.12 10.5-15.26 19-29.12 19zm-2-64.35c-6.37 0-9.3 8-9.7 22.05l17.75-.28c.05-10.8-.04-21.77-8.04-21.77zM44.1 180.86h-6.27v29.4c0 3.05 1.1 5.4 4.16 6.8a58 58 0 0 0 10.1 2.22v3.2H0v-3.2c2.5-.14 8.88-1.1 10.54-1.8 3.33-1.25 4.16-3.75 4.16-6.8v-70.32c0-3.05-.7-5.4-4.16-6.8A64.93 64.93 0 0 0 0 130.92v-3.2h50.07c23.58 0 35.37 7.5 35.37 23.6 0 20.8-20.1 29.54-41.33 29.54zm-1.8-49h-4.47v44.52h2.5c15.12 0 20.25-9.15 20.25-21.77.03-13.9-4.68-22.7-18.28-22.7zm72.82 92.7c-22.75 0-33.3-15.27-33.3-34.4 0-17.9 11.38-33.57 32.32-33.57 21.22 0 28.57 13.1 28.57 27.6v1.9h-39.2c-.1 0 0 1.5 0 1.6 0 16.3 5.2 28.4 18.6 28.4 8.5 0 14.4-3.1 19.4-12.8l2.8 2.1c-5.1 10.5-15.2 19-29.1 19zm-1.94-64.36c-6.38 0-9.3 8-9.7 22.05l17.74-.28c0-10.82-.14-21.77-8.04-21.77zm75.72 62.27v-2.9a14.66 14.66 0 0 0 5.12-1.12c1.8-1 2.08-3 2.08-6.1v-33.43c0-9.57-3.2-13.45-8-13.45-7.07 0-10.68 5.27-12.2 8.32v37.8c0 3 .55 5.1 2.36 6.2a13 13 0 0 0 5.27 1.6v2.9h-37v-2.9a18.9 18.9 0 0 0 5.83-1.1c2.5-1 3.47-3 3.47-6.1v-41a9.26 9.26 0 0 0-3.6-7.4 15 15 0 0 0-6.67-2.1V159l29.4-1.67 1 1v9.6h.28c5-5.28 9.7-11.38 21.36-11.38 12.62 0 19 8.6 19 21.76v33.5c0 3 .7 5 3.2 6.1a18.83 18.83 0 0 0 6 1.7v2.9zm65.45 2.08c-8.88 0-16.23-3.75-19-6l-2.52 4.75h-4.16l-.7-24h2.78c2.77 8.32 11.23 21.64 22.6 21.64 7.08 0 10.4-4.16 10.4-10.68 0-7.2-6.37-9.57-15.8-12.76s-18.12-8.5-18.12-21.35c0-10.68 9.15-19.56 24.55-19.56a39 39 0 0 1 16.78 3.7l1.8-3.9h4l.83 21.9h-2.7c-3.1-9.6-11-18.2-18.7-18.2-6.7 0-9.3 4.1-9.3 9.3 0 7.2 4.4 8.7 15.2 12.3s18.5 9.8 18.5 21.2c0 14-11.68 21.5-26.66 21.5zm30.37-2.08v-2.9a19 19 0 0 0 6-1.12c2.5-1 3.6-3.2 3.6-6.1V171.3a8 8 0 0 0-3.46-6.95 21 21 0 0 0-8.18-2.5v-2.77l30.8-1.66 1 1v53.26a6.33 6.33 0 0 0 3.73 6.24 14.76 14.76 0 0 0 6 1.66v2.9zm30.1-90.7a12.14 12.14 0 0 1-24.26 0c0-6.93 5.4-11.93 12.2-11.93a11.8 11.8 0 0 1 12.07 11.93zm45.88 92.78c-18.7 0-34.1-12.9-34.1-34.12 0-19.83 13.44-33.84 34.66-33.84 21.64 0 34.4 14 34.4 33.4s-11.83 34.5-34.95 34.5zm.7-64.63c-10.82 0-12.34 16.37-12.34 29.68 0 16.64 2.36 31.34 12.2 31.34 9.43 0 12.07-14.3 12.07-31.07 0-14.56-1.66-29.95-11.92-29.95zm81.13 62.55v-2.9a14.66 14.66 0 0 0 5.13-1.12c1.8-1 2.08-3 2.08-6.1v-33.43c0-9.57-3.2-13.45-8-13.45-7.07 0-10.68 5.27-12.2 8.32v37.8c0 3 .55 5.1 2.36 6.2a13 13 0 0 0 5.27 1.6v2.9h-37v-2.9a18.9 18.9 0 0 0 5.83-1.1c2.5-1 3.47-3 3.47-6.1v-41a9.26 9.26 0 0 0-3.6-7.4 15 15 0 0 0-6.67-2.1V159l29.4-1.67 1 1v9.6h.28c5-5.28 9.7-11.38 21.36-11.38 12.62 0 19 8.6 19 21.76v33.5c0 3 .7 5 3.2 6.1a18.83 18.83 0 0 0 6 1.7v2.9zm65.47 2.08c-8.9 0-16.24-3.75-19-6l-2.5 4.72h-4.17l-.7-24h2.78c2.8 8.32 11.3 21.64 22.7 21.64 7.1 0 10.4-4.1 10.4-10.6 0-7.2-6.4-9.5-15.8-12.7s-18.2-8.4-18.2-21.3c0-10.65 9.2-19.53 24.6-19.53a39 39 0 0 1 16.8 3.75l1.8-3.9h4l.9 21.9H529c-3.05-9.57-11-18.17-18.7-18.17-6.66 0-9.3 4.16-9.3 9.3 0 7.2 4.45 8.7 15.27 12.3s18.58 9.88 18.58 21.2c-.03 14.1-11.7 21.6-26.66 21.6z" class="st1"></path><path d="M567.76 212.07a12.5 12.5 0 1 1-12.48-12.2 12.28 12.28 0 0 1 12.48 12.2z" class="st2"></path>
</svg>
