<svg id="Profile Pensions" xmlns="http://www.w3.org/2000/svg" viewBox="0 0 574 232">
	<style>
		.st0{fill:#00A19A;}
	</style>
	<path class="st0" d="M46.3 65H40v29.7c0 3 1 5.4 4.2 6.8 1.7.7 7.5 2 10.2 2.2v3.2H2v-3.3c2.5 0 9-1 10.6-1.8 3.3-1.4 4.2-4 4.2-7V24.5c0-3-.7-5.4-4.2-6.8C10 16.6 4.4 15.2 2 15v-3.3h50.3C76 11.7 88 19.2 88 35.4 88 56.4 67.6 65 46.2 65zM44.5 16H40v44.8h2.5c15.2 0 20.4-9.2 20.4-22C63 24.7 58 16 44.4 16z"/>
	<path class="st0" d="M137.8 65.6c-6 0-10.3-3.3-10.3-9 0-2.6 1.3-5 1.7-6.8-6 0-10 4.7-11 6.7V96c0 3.2 1.4 5.3 3.8 6.2 2.2 1 7 1.5 9.2 1.7v2.8H88.7v-3c2.2 0 4-.3 6-1 2.5-1 3.4-3 3.4-6V55.3c0-2.6-1.4-6-3.5-7.4-1.5-1-4.6-2-7-2v-3l29.8-1.6 1 1v9.3h.3c5.6-7.3 11.3-11 18-11 7 0 12 5 12 12.8 0 6.7-4.4 12-10.8 12zM184.4 109c-18.8 0-34.3-13-34.3-34.3 0-20 13.6-34 35-34 21.8 0 34.6 14 34.6 33.6 0 19.4-12 34.7-35.2 34.7zm.7-65c-10.8 0-12.3 16.5-12.3 29.8 0 16.7 2.4 31.5 12.3 31.5 9.5 0 12-14.4 12-31.2 0-14.5-1.6-30-12-30zM253.7 48.6v47.6c0 2 .3 3.6 1 4.7 1 1.7 3.3 2.4 6.6 3v3H224v-3c2.3 0 4-.4 6-1 2.4-1 3.5-3.2 3.5-6.2v-48H220v-6h13.5V40c0-11.3 3.3-21 9.5-27.3 5.6-5.8 14.2-10 27.8-10 17 0 23.4 6.7 23.4 15 0 4.2-3.5 10.5-10.2 10.5-5.7 0-10.2-3-10.2-9 0-3.3 1-5.4 2-9.4 0-1.6-4.6-3.4-7.3-3.4-8 0-14.2 8.2-15 27.3v8.8h19l20.7-1 1 1v53.5c0 3 1.3 5.2 3.8 6.3 2 1 3.8 1.4 6 1.7v3h-37.2v-3c2.6 0 4.3-.6 5.4-1.5 1.4-1.3 1.8-3 1.8-5.7V56c0-3-1-5.3-3.3-6.8l-17-.4zM304.5 107v-3c2.2 0 4-.4 6-1 2.5-1 3.5-3.2 3.5-6.2V18c0-3.5-1.5-6.5-3.8-8-1.7-1-7-2.5-9.6-2.7V4.5L333 2.8l1 1V96c0 3 1.2 5.2 3.7 6.3 2 .8 3.5 1.4 6 1.7v3h-39.2zM380 109c-23 0-33.6-15.3-33.6-34.6 0-18 11.4-33.7 32.5-33.7 21.2 0 28.6 13.3 28.6 27.8v2H368v1.7c0 16.5 5.3 28.6 18.8 28.6 8.5 0 14.5-3 19.5-12.8l2.8 2c-5 10.5-15.2 19-29 19zm-2-64.7c-6.4 0-9.3 8-9.8 22.2l18-.3c-.2-11-.3-22-8.2-22zM46.3 184.6H40v29.6c0 3 1 5.4 4.2 6.8 1.7.7 7.5 2 10.2 2.2v3.2H2v-3.2c2.5 0 9-1 10.6-1.8 3.3-1.3 4.2-3.8 4.2-6.8V144c0-3.2-.7-5.5-4.2-7-2.6-1-8.2-2.3-10.6-2.6v-3.2h50.3C76 131.2 88 138.7 88 155c0 20.8-20.3 29.6-41.7 29.6zm-1.8-49.2H40v44.8h2.5c15.2 0 20.4-9.2 20.4-22 0-14-4.8-22.8-18.5-22.8zM117.7 228.5c-23 0-33.5-15.3-33.5-34.6 0-18 11.4-33.8 32.5-33.8 21.3 0 28.7 13.3 28.7 27.8v2H106c-.2 0 0 1.5 0 1.7 0 16.5 5 28.6 18.6 28.6 8.5 0 14.5-3 19.5-12.8l3 2c-5 10.5-15.3 19-29.3 19zm-2-64.7c-6.3 0-9.2 8-9.7 22.2l18-.3c0-11-.3-22-8.2-22zM192 226.4v-3c1.7 0 3.7-.3 5-1 2-1 2.2-3 2.2-6v-33.7c0-9.6-3.2-13.5-8-13.5-7.2 0-10.8 5.3-12.4 8.4v38c0 3.2.6 5.3 2.4 6.4s3.5 1.4 5.3 1.7v3h-37.2v-3c2.2 0 4-.4 6-1 2.4-1 3.4-3.2 3.4-6.2v-41.3c0-3-1.5-6-3.6-7.4-1.6-1-4.4-2-6.6-2v-3l29.6-1.6 1 1v9.6h.3c5-5.3 9.8-11.4 21.5-11.4 12.7 0 19 8.6 19 22v33.5c0 3 .8 5 3.3 6 2 .8 3.6 1.4 6 1.7v3l-37-.3zM257.7 228.5c-9 0-16.3-3.8-19-6l-2.6 4.7h-4l-.8-24h2.8c2.8 8.3 11.3 21.7 22.7 21.7 7 0 10.5-4.3 10.5-10.8 0-7.3-6.4-9.6-16-12.8C242 198.2 233 193 233 180c0-10.8 9.2-19.8 24.7-19.8 6.8 0 13 1.8 17 3.8l1.7-4h4l.8 22h-2.6c-3-9.5-11-18.2-18.8-18.2-6.7 0-9.3 4.2-9.3 9.3 0 7.4 4.5 9 15.3 12.5 11 3.6 18.7 10 18.7 21.3 0 14.2-11.7 21.7-26.8 21.7zM288.3 226.5v-3c2.4 0 4.2-.3 6-1 2.5-1 3.6-3.2 3.6-6V175c0-3-1.4-5.3-3.6-7-1.7-1-5.7-2.3-8.2-2.4v-2.8l31-1.7 1 1v53.7c0 3 1.3 5.2 3.8 6.3 2 1 3.8 1.4 6 1.7v3l-39.7-.2zm30.2-91.3c0 6.8-5.3 12-12 12-7 0-12.4-5.2-12.4-12 0-7 5.5-12 12.4-12 7 0 12 5.2 12 12zM364.7 228.6c-18.8 0-34.3-13-34.3-34.3 0-20 13.5-34 35-34 21.7 0 34.5 14 34.5 33.6-.2 19.2-12 34.6-35.3 34.6zm.7-65c-11 0-12.4 16.5-12.4 29.8 0 16.7 2.4 31.5 12.3 31.5 9.5 0 12-14.5 12-31.3 0-14.7-1.6-30-12-30zM447 226.5v-3c1.8 0 3.8-.3 5.2-1 1.8-1 2-3 2-6v-33.7c0-9.6-3-13.5-8-13.5-7 0-10.7 5.3-12.3 8.4v38c0 3.2.5 5.3 2.3 6.4s3.5 1.5 5.3 1.8v3h-37.2v-3c2.2 0 4-.4 6-1 2.4-1 3.4-3.2 3.4-6.2v-41.3c0-3-1.5-6-3.6-7.4-1.7-1.2-4.5-2-6.7-2.2V163l29.6-1.7 1 1v9.6h.4c5-5.4 9.8-11.5 21.5-11.5 12.6 0 19 8.6 19 22V216c0 3 .7 5 3.2 6 2 1 3.5 1.5 6 1.8v3l-37.2-.3zM512.8 228.6c-9 0-16.3-3.8-19-6l-2.6 4.7H487l-.7-24h2.8c3 8.3 11.4 21.7 22.8 21.7 7 0 10.5-4.2 10.5-10.7 0-7.3-6.4-9.6-16-12.8-9.2-3.2-18.2-8.5-18.2-21.5 0-10.7 9.3-19.7 24.8-19.7 6.8 0 13 1.8 17 3.8l1.7-3.8h4l.8 22h-2.6c-3-9.6-11-18.3-18.8-18.3-6.8 0-9.4 4-9.4 9.2 0 7.3 4.5 8.8 15.3 12.4 11 3.6 18.6 10 18.6 21.3 0 14-11.7 21.6-26.8 21.6zM573 216c0 7-5.8 12.3-12.7 12.3-6.8 0-12.6-5.3-12.6-12.3 0-7 5.7-12.3 12.6-12.3 7 0 12.6 5.3 12.6 12.3z"/>
</svg>
