<svg id="Layer_1" data-name="Layer 1" xmlns="http://www.w3.org/2000/svg" viewBox="0 0 71.26 15.54"><defs><style>.cls-1{fill:#0077be;}</style></defs><title>MetLife</title><path class="cls-1" d="M37.37,49.88a2.08,2.08,0,0,0-4,0ZM36.27,56.2H34.65c-2.78-.28-4.77-2-4.77-5,0-3.13,2.21-5,5.36-5,3.36,0,5.31,2,5.31,5.22v.35H33.32a1.9,1.9,0,0,0,2.15,2.09A1.73,1.73,0,0,0,37.12,53h3.31a4.46,4.46,0,0,1-4.15,3.18Z" transform="translate(-12.04 -40.67)"/><polygon class="cls-1" points="34.57 15.41 31.13 15.41 31.13 8.77 29.41 8.77 29.41 6.03 31.13 6.03 31.13 3.21 34.57 3.21 34.57 6.03 36.27 6.03 36.27 8.77 34.57 8.77 34.57 15.41 34.57 15.41"/><polygon class="cls-1" points="50.33 15.41 46.89 15.41 46.89 5.38 50.33 5.38 50.33 15.41 50.33 15.41"/><path class="cls-1" d="M69.26,56H65.82V49.72H64.11V47h1.71v-.49a4.21,4.21,0,0,1,1-3.29,4.46,4.46,0,0,1,3.38-1.5,3.15,3.15,0,0,1,1.47.33V44.9a3,3,0,0,0-1.21-.31c-.89,0-1.19.51-1.19,1.57V47h2.05v2.75H69.26V56Z" transform="translate(-12.04 -40.67)"/><path class="cls-1" d="M79.55,49.88a2.08,2.08,0,0,0-4,0Zm-1,6.32H76.78c-2.75-.3-4.71-2-4.71-4.95,0-3.13,2.21-5,5.36-5,3.36,0,5.31,2,5.31,5.22v.35H75.51a1.9,1.9,0,0,0,2.15,2.09A1.73,1.73,0,0,0,79.31,53h3.31a4.45,4.45,0,0,1-4.1,3.17Z" transform="translate(-12.04 -40.67)"/><path class="cls-1" d="M60.64,40.67a2.06,2.06,0,1,0,2.12,2.06,2.09,2.09,0,0,0-2.12-2.06Z" transform="translate(-12.04 -40.67)"/><polygon class="cls-1" points="2.31 2.26 5.78 2.26 8.54 9.3 11.46 2.26 14.97 2.26 17.02 15.42 13.49 15.42 12.5 7.85 12.47 7.85 9.21 15.42 7.8 15.42 4.68 7.85 4.65 7.85 3.51 15.42 0 15.42 2.31 2.26 2.31 2.26"/><polygon class="cls-1" points="41.31 12.46 45.61 12.46 45.61 15.4 37.72 15.4 37.72 2.03 41.31 2.03 41.31 12.46 41.31 12.46"/><path class="cls-1" d="M82,44.85h.18c.15,0,.32,0,.32-.17s-.15-.17-.26-.17H82v.34Zm-.21-.51h.47c.29,0,.41.14.41.34a.29.29,0,0,1-.32.31l.35.51h-.21L82.16,45H82v.48h-.21V44.34Zm.41,1.53a.94.94,0,0,0,0-1.89.94.94,0,1,0,0,1.89Zm0-2A1.09,1.09,0,1,1,81,44.94a1.11,1.11,0,0,1,1.14-1.11Z" transform="translate(-12.04 -40.67)"/></svg>