<svg id="Layer_1" data-name="Layer 1" xmlns="http://www.w3.org/2000/svg" viewBox="0 0 90 90"><defs><style>.cls-1{opacity:0.05;}.cls-2{fill:#92de63;}.cls-3{fill:#169b62;}</style></defs><title>Performance</title><g class="cls-1"><circle class="cls-2" cx="45" cy="45" r="45"/></g><path class="cls-2" d="M21.13,72.4a.76.76,0,0,1-.76-.76V58.44a.76.76,0,1,1,1.51,0v13.2A.76.76,0,0,1,21.13,72.4Z"/><path class="cls-2" d="M36.65,72.4a.76.76,0,0,1-.76-.76V53.06a.76.76,0,1,1,1.51,0V71.64A.76.76,0,0,1,36.65,72.4Z"/><path class="cls-2" d="M52.18,72.4a.76.76,0,0,1-.76-.76v-24a.76.76,0,0,1,1.51,0v24A.76.76,0,0,1,52.18,72.4Z"/><path class="cls-2" d="M67,72.4a.76.76,0,0,1-.76-.76V42.28a.76.76,0,0,1,1.51,0V71.64A.76.76,0,0,1,67,72.4Z"/><path class="cls-3" d="M17.76,52.14a.76.76,0,0,1-.54-1.29L36.79,31.28a.76.76,0,0,1,1-.07l10.27,7.71L69.19,17.79a.76.76,0,1,1,1.07,1.07l-21.6,21.6a.76.76,0,0,1-1,.07L37.4,32.81,18.29,51.92A.75.75,0,0,1,17.76,52.14Z"/><path class="cls-3" d="M70.24,30.83a.76.76,0,0,1-.76-.76V18.51H57.93a.76.76,0,1,1,0-1.51H70.24a.76.76,0,0,1,.76.76V30.07A.76.76,0,0,1,70.24,30.83Z"/></svg>