<svg id="Layer_1" data-name="Layer 1" xmlns="http://www.w3.org/2000/svg" viewBox="0 0 90.05 17.85"><defs><style>.cls-1{fill:#c02b35;}.cls-2{fill:#004d71;}</style></defs><title>Scottish_Widows</title><path class="cls-1" d="M88.39,40.29C83.33,43.2,77.93,45.36,71.9,45.1c-4.22-.21-8.13-1.19-12.22-1.88a8.74,8.74,0,0,0-7.43,2l-1.06,1h0A12.27,12.27,0,0,1,61.92,42l2.24.3,5.58,1c4.79.78,10.29.63,14.73-1.29a34.44,34.44,0,0,0,3.91-1.78v0Z" transform="translate(-4.37 -40.25)"/><path class="cls-2" d="M94.2,46.88l-.22.94c-.18,0-.31-.23-.44-.28a2,2,0,0,0-1.63-.19c-.13.05-.13.21-.09.35l.18.17c.88.58,2.51.58,2.42,2.27a1.66,1.66,0,0,1-1.1,1.22,8.23,8.23,0,0,1-3.52-.1c-.09-.16,0-.33,0-.52l0-.63a1.89,1.89,0,0,0,2.29.51c.18-.14.13-.31.13-.47L92,49.91c-.79-.44-2-.52-2.33-1.73a1.15,1.15,0,0,1,.31-1,4.1,4.1,0,0,1,3.08-.47l1.1.17Z" transform="translate(-4.37 -40.25)"/><path class="cls-2" d="M89.27,46.81l-1.54,4.58H85.36l.09-.31c-.22-.66-.35-1.43-.62-2.06A24.13,24.13,0,0,0,84,51.39l-2.33,0a1.71,1.71,0,0,0,0-.49l-1.1-3.47-.35-.63c.84,0,1.63-.05,2.37,0l1,3.31c.35-.61.48-1.43.79-2.07a1.2,1.2,0,0,0-.09-.87L84,46.81h2.33c.4,1.1.57,2.25,1,3.3l.09-.12.7-2.11a1.47,1.47,0,0,0-.26-1.06,7.55,7.55,0,0,1,1.41,0Z" transform="translate(-4.37 -40.25)"/><path class="cls-2" d="M42.92,47.08c-.09.35-.18.68-.26,1a2.5,2.5,0,0,0-1.89-.65.28.28,0,0,0-.26.21c-.09.21.13.33.22.42.79.52,2,.49,2.42,1.74a1.28,1.28,0,0,1-.35,1.24c-1.19,1-2.95.61-4.35.37,0-.42,0-.75,0-1.17a2.17,2.17,0,0,0,2.29.58.41.41,0,0,0,.18-.51c-.53-.52-1.23-.58-1.8-.94a1.51,1.51,0,0,1-.75-1.1A1.23,1.23,0,0,1,39,47.14c1.19-.52,2.64-.23,3.91-.05Z" transform="translate(-4.37 -40.25)"/><path class="cls-2" d="M8.84,47.12a4.36,4.36,0,0,0-.18.63l0,.38a2.24,2.24,0,0,0-2.11-.54.39.39,0,0,0-.09.38c.26.44,1.94.58,2.59,1.66a2.12,2.12,0,0,1,0,.92c-.44,1.22-1.58,1.15-2.55,1.2a9.4,9.4,0,0,1-2.11-.3,7.93,7.93,0,0,0,.09-1.1,2.23,2.23,0,0,0,2,.63.51.51,0,0,0,.4-.38.37.37,0,0,0-.22-.42c-.76-.49-2.14-.55-2.32-1.78V48c.28-.94,1.18-1,1.87-1.08a15.83,15.83,0,0,1,2.59.24Z" transform="translate(-4.37 -40.25)"/><path class="cls-2" d="M14.65,47.14l-.18,1a1.88,1.88,0,0,0-1.85-.54,1.36,1.36,0,0,0-.66,1.1c0,.7-.13,1.53.4,2a1.57,1.57,0,0,0,1.93.05l.4-.38a7.21,7.21,0,0,1,0,1c-1.41.54-3.43.78-4.57-.66a2.84,2.84,0,0,1-.35-2.07,2.55,2.55,0,0,1,2.51-1.73,10,10,0,0,1,2.33.26Z" transform="translate(-4.37 -40.25)"/><path class="cls-2" d="M34.08,46.91a11.7,11.7,0,0,0-.31,1.26,2.55,2.55,0,0,0-1.45-.56l-.09.05,0,3.54c0,.14.09.26.13.37H29.86l.18-.44c0-1.24,0-2.27,0-3.47a3.08,3.08,0,0,0-1.85.56A12.13,12.13,0,0,0,28.54,47a45.29,45.29,0,0,0,5.54-.05Z" transform="translate(-4.37 -40.25)"/><path class="cls-2" d="M27.36,47l.62-.09a6,6,0,0,0-.26,1.24,2.52,2.52,0,0,0-1.58-.51c0,1.2,0,2.39,0,3.47l.18.47H23.79A10.64,10.64,0,0,0,24,48.91l0-1.26a3.23,3.23,0,0,0-1.8.56L22.39,47c.31,0,.7.05,1,.07l4,0Z" transform="translate(-4.37 -40.25)"/><path class="cls-2" d="M60.16,51.55H57.79a.87.87,0,0,0,0-.66c-.22-.54-.26-1.15-.53-1.67-.31.73-.53,1.55-.84,2.3l0,.05H54.09c.18-.38,0-.75-.13-1.12-.48-1.13-.57-2.49-1.28-3.47l2.37,0,.09.1c.31,1.06.53,2.16.88,3.19l.09-.12a9.26,9.26,0,0,0,.7-2.42,1.2,1.2,0,0,0-.35-.73l2.29,0,.09.12.88,3.17.09,0,.75-2.09a1.42,1.42,0,0,0-.31-1.19c.44,0,1.05,0,1.49,0l-1.58,4.58Z" transform="translate(-4.37 -40.25)"/><path class="cls-2" d="M64.82,47.5v3.38a2.81,2.81,0,0,0,.22.63c-.84.05-1.72,0-2.55,0a2.2,2.2,0,0,0,.22-.73l0-3.38-.18-.51H65l-.18.58Z" transform="translate(-4.37 -40.25)"/><path class="cls-2" d="M37.29,47a1.43,1.43,0,0,0-.18.75,33.09,33.09,0,0,0,0,3.63l.13.23-2.55,0a2.34,2.34,0,0,0,.18-.73V47.5a2.13,2.13,0,0,0-.18-.52c.79-.05,1.72,0,2.55,0Z" transform="translate(-4.37 -40.25)"/><path class="cls-2" d="M46.53,47a3.92,3.92,0,0,0-.18,1.78l.09,0,1.58,0a4.65,4.65,0,0,0-.09-1.57L47.8,47H50.4a1.5,1.5,0,0,0-.22.71l0,3.38a1,1,0,0,0,.18.49H47.85c.35-.52.13-1.31.18-2v-.05H46.35a6.17,6.17,0,0,0,.18,2H44a2.26,2.26,0,0,0,.22-1l0-3.16L44,47Z" transform="translate(-4.37 -40.25)"/><path class="cls-2" d="M79.9,48.58a2.45,2.45,0,0,1-.31,1.94c-1.1,1.31-2.81,1.2-4.22.94a2.39,2.39,0,0,1-1.85-1.81,2.52,2.52,0,0,1,.4-2,3.57,3.57,0,0,1,1.89-1,2.44,2.44,0,0,1,.48,0c1.41,0,3.08.07,3.61,1.88Zm-3.43-1.24c-.4.09-.62.56-.7,1A3.67,3.67,0,0,0,76,50.61a.87.87,0,0,0,1,.28,1,1,0,0,0,.53-.57,4.19,4.19,0,0,0,0-2.44.89.89,0,0,0-1.05-.52Z" transform="translate(-4.37 -40.25)"/><path class="cls-2" d="M21.55,48.27a2.47,2.47,0,0,1-.09,2.28c-1.19,1.57-3.69,1.38-4.7.91a2.51,2.51,0,0,1-1.45-1.55,3.24,3.24,0,0,1,.22-1.83c.92-1.27,2.42-1.32,3.78-1.2a2.88,2.88,0,0,1,2.24,1.39Zm-3.61-.61a1.39,1.39,0,0,0-.44,1c0,.77-.13,1.85.62,2.28a1,1,0,0,0,1-.11,1.34,1.34,0,0,0,.35-.82,3.55,3.55,0,0,0-.31-2.35.87.87,0,0,0-1.19-.05Z" transform="translate(-4.37 -40.25)"/><path class="cls-2" d="M71.9,47.5a2.19,2.19,0,0,1,.75,1.88,2.44,2.44,0,0,1-.4,1.13,2.73,2.73,0,0,1-2.11,1c-1.28.07-2.55,0-3.87.05.26-.31.18-.73.18-1.13V47.29l-.18-.38c1.89.17,4-.42,5.63.59Zm-3.25.05v3.23l0,.05c.57,0,1.28.05,1.58-.64a3.18,3.18,0,0,0,0-2c-.35-.68-1-.66-1.58-.61Z" transform="translate(-4.37 -40.25)"/><path class="cls-2" d="M46.88,52.61a13.23,13.23,0,0,1-7.3,4.2c-4.09.63-8-.68-12-1.26a30.79,30.79,0,0,0-13.41.21A29.15,29.15,0,0,0,8.14,58.1c-.09,0,0,0,0-.07L9.5,57.3c4.75-2.37,9.81-4,15.43-3.66a44.2,44.2,0,0,1,6.07.78l5.63,1.19a9.42,9.42,0,0,0,8.71-1.81l1.41-1.19Z" transform="translate(-4.37 -40.25)"/></svg>