<svg xmlns="http://www.w3.org/2000/svg" viewBox="0 0 753.74 122.74"><defs><style>.cls-1{fill:#fff;}</style></defs><title>The_Telegraph_reverse</title><path class="cls-1" d="M272.78,382a58.55,58.55,0,0,1-7.23-.58v42.65c0,1-.15,1.3-.72,1.73l-24.29,15.47A29.1,29.1,0,0,0,253,444.15c15.33,0,32.67-8.39,40.77-29.35.43-1.16,1.45-1.45,1.45.58v1.45c0,23-17.49,43.66-43.37,43.66-28.19,0-45.11-21.25-45.11-43.37,0-16.63,9.11-32.1,29.78-38.6.87-.29,1,.14.43.58-9.11,7.08-14,18.65-14,30.22,0,12.29,4.92,24.43,15.9,30.94l6.07-4.63a5.8,5.8,0,0,0,2.46-5.35V377.64c-6.65-2.46-12.58-3.9-18.07-3.9-7.52,0-14.31,3.33-21,11.42-.72.87-1.16.87-1.16,0,.87-16.34,15.47-25.59,29.93-25.59,16.63,0,32,8.1,48.72,8.1a36.21,36.21,0,0,0,17.06-4c.72-.29.87.29.58.87C298.23,377.5,285.51,382,272.78,382Zm78.65,77.2c-.58.58-.58.43-1,.14l-11.57-10.27a4.29,4.29,0,0,1-1.73-3.76V405.69a1.36,1.36,0,0,0-.58-1.3l-3.9-3.47a1.55,1.55,0,0,0-1.59-.14l-7.37,3.47v37.3c0,.58-.14,1.16.43,1.59l3.33,2.89c.87.72,2.31,1.59,3.61,1.16l1.16-.43c1.45-.58,1.73.29.87,1l-13.3,11.42c-.58.58-.72.43-1.16.14L306.9,448.92c-1.45-1.16-1.45-1.45-1.45-3.33V381.4c0-.72,0-.87-.72-1.45l-1.45-1.3c-1.45-1.3-2-1-3.9-.14l-2.89,1.3c-.43.15-.87-.43-.14-1.16l15.33-12.87c.58-.58.58-.43,1-.14l9.25,8.53a4.47,4.47,0,0,1,1.73,3.76v24.14l19.23-12.14a1.3,1.3,0,0,1,1.59.14l9.4,8.67a4,4,0,0,1,1.59,3.47v39.61c0,.72,0,.87.72,1.45l3.61,3c1.45,1.3,2,1,3.9.14l2.89-1.3c.43-.15.87.43.15,1.16ZM413,411.33l-25.59,16v12.29c0,1.16.14,1.59,1.16,2l8.24,4.34c1.45.72,3.9,1.45,5.35.58l7.66-4.48c1.3-.72,2.31-.29,1.59.29l-21,16.92c-.43.43-.29.29-.87,0L371,449.5c-1.45-.72-1.88-1-1.88-3V400.78c0-.72.29-1,1.16-1.3l30.5-9.83c.43-.14.87-.29,1.16.29l11.42,20.24A.7.7,0,0,1,413,411.33Zm-25.3-14-.29.14v28l10.12-8.39c.58-.43.58-.72.29-1.16Zm125-15.32a58.57,58.57,0,0,1-7.23-.58v42.65c0,1-.15,1.3-.72,1.73l-24.29,15.47a29.09,29.09,0,0,0,12.43,2.89c15.33,0,32.67-8.39,40.77-29.35.43-1.16,1.45-1.45,1.45.58v1.45c0,23-17.49,43.66-43.37,43.66-28.19,0-45.11-21.25-45.11-43.37,0-16.63,9.11-32.1,29.78-38.6.87-.29,1,.14.43.58-9.11,7.08-14,18.65-14,30.22,0,12.29,4.92,24.43,15.9,30.94l6.07-4.34c2.17-1.45,2.46-3,2.46-5.35V377.64c-6.65-2.46-12.58-3.9-18.07-3.9-7.52,0-14.31,3.33-21,11.42-.72.87-1.16.87-1.16,0,.87-16.34,15.47-25.59,29.93-25.59,16.63,0,31.95,8.1,48.72,8.1a36.21,36.21,0,0,0,17.06-4c.72-.29.87.29.58.87C538.17,377.5,525.45,382,512.73,382Zm73.15,29.35-25.59,16v12.29c0,1.16.14,1.59,1.16,2l8.24,4.34c1.45.72,3.91,1.45,5.35.58l7.66-4.48c1.3-.72,2.31-.29,1.59.29l-21,16.92c-.43.43-.29.29-.87,0l-18.65-9.83c-1.45-.72-1.88-1-1.88-3V400.78c0-.72.29-1,1.16-1.3l30.51-9.83c.43-.14.87-.29,1.16.29l11.42,20.24A.7.7,0,0,1,585.88,411.33Zm-25.3-14-.29.14v28l10.12-8.39c.58-.43.58-.72.29-1.16Zm45.54,61.88c-.58.58-.72.43-1.16.14l-11.71-10.41c-1.44-1.16-1.44-1.45-1.44-3.33V381.4c0-.72,0-.87-.72-1.45l-1.45-1.3c-1.45-1.3-2-1-3.9-.14l-2.89,1.3c-.44.15-.87-.43-.15-1.16L598,365.79c.58-.58.58-.43,1-.14l9.25,8.53a4.47,4.47,0,0,1,1.74,3.76v63.61c0,.58-.15,1.16.43,1.59l3.33,2.89c.87.72,2.31,1.59,3.61,1.16l1.16-.43c1.45-.58,1.73.29.87,1Zm60.29-47.86-25.59,16v12.29c0,1.16.14,1.59,1.16,2l8.24,4.34c1.45.72,3.9,1.45,5.35.58l7.66-4.48c1.3-.72,2.31-.29,1.59.29l-21,16.92c-.43.43-.29.29-.87,0l-18.65-9.83c-1.45-.72-1.88-1-1.88-3V400.78c0-.72.29-1,1.16-1.3l30.51-9.83c.43-.14.87-.29,1.16.29l11.42,20.24A.7.7,0,0,1,666.41,411.33Zm-25.3-14-.29.14v28l10.12-8.39c.58-.43.58-.72.29-1.16ZM719,469.16,703.14,482a.72.72,0,0,1-1,.14c-8.39-5.64-15-8.24-22.26-8.24-5.06,0-10.12,1-16.63,2.75-.58.14-.72-.29-.43-.72,6.8-10.27,15.18-13.45,23-13.45,11.57,0,22.41,7.08,26.75,10l.43-.29a17.89,17.89,0,0,0,1.59-7.37c0-7.37-6.07-13.3-13.59-17.06l-15.61,11.57a1,1,0,0,1-1.45-.14l-9.83-9c-1.45-1.3-1.74-1.88-1.74-3.33V404.68c0-.72.58-.87.87-1l33.25-13.73c.87-.43,1.45-.43,1.74-.14l9.25,9.25c1.16,1.16,1.73,2,1.73,3v38.46c6.07,4.48,8.68,9,8.68,13.44C727.86,459,725.4,464,719,469.16Zm-18.07-64a2,2,0,0,0-.72-1.59l-5.35-5.35c-.29-.29-.43-.14-.87,0l-3.47,1.59v41.49c0,2.31.58,2.6,2.89,4.77,1.3,1.16,2,1.59,3.32,1.59A10,10,0,0,0,701,446Zm65.21,3.18a3.15,3.15,0,0,1-4.34,0L753,400.78l-.87.72v40.19c0,.87,0,1,.58,1.45l2.31,2c2.46,2,3,2.31,5.64,1.3l1.73-.72c1.16-.43,1.45.14.72.87l-14.89,12.58c-.58.58-.72.43-1.16.14l-11.42-10.27c-1.3-1.16-1.74-1.59-1.74-3.18v-41.2l-3.47-3.61c-.29-.29-.43-.29-.87,0l-4.34,2.46c-1.3.72-1.74-.29-.87-1l14.89-12.58c.58-.43.87-.43,1.16-.14l10.12,10,10-9.83c.58-.43,1-.58,1.59,0l7.66,7.08c1.45,1.3,2.31,2,3.18,2a4.21,4.21,0,0,0,2.17-.87l2-1.3c1.3-.87,1.88.43,1.16,1.16Zm53.35,50.89c-.58.58-.72.43-1.16.14l-13.16-11.57-15.62,11.57c-.58.43-.72.29-1.3-.14l-10-9c-1.59-1.3-1.73-1.59-1.73-3.33V404.68c0-.72.58-.87.87-1L811,389.79a1.36,1.36,0,0,1,1.73.29l9,9c1.3,1.3,1.74,2,1.74,2.89V442.7L826,445c3.18,2.75,3.61,2.6,5.06,1.88l2-1c1.3-.72,2.31-.14,1.16.87ZM805.21,405.4a2.38,2.38,0,0,0-.87-2l-5.21-5.21c-.29-.29-.29-.14-.72,0l-3.61,1.59v41.78a3.36,3.36,0,0,0,1.3,3l1.88,1.74a4.13,4.13,0,0,0,4.77.87l2.46-1.16Zm82.41,43.23-13.16,10.12c-1.45,1.16-1.74.87-3.47-.14l-13.74-8.39v16.91l3.9,3.33c.43.29.43.58,0,1L849.73,482c-.29.14-.58.43-1.16,0l-12.72-10.27c-.43-.29-.29-.58,0-1l3.18-3.61V405l-3.18-3.9c-.14-.14-.29-.14-.58,0l-4.34,2.17c-1,.58-1.73-.15-.87-.87l14.75-12.43a.94.94,0,0,1,1.3-.14l10.7,10.55,19.37-10.41a1,1,0,0,1,1.16,0l9.69,9a4.82,4.82,0,0,1,1.59,3.18v44.24A2.23,2.23,0,0,1,887.61,448.63Zm-17.21-42.79a2.94,2.94,0,0,0-.87-2.17l-4-3.9a.86.86,0,0,0-1-.15l-7.23,2.75V448.2l4,1.3c3.32,1,4.77.87,6.22-.43l1.45-1.3c1.3-1.16,1.44-2.46,1.44-4.77Zm74.34,53.35c-.58.58-.58.43-1,.14l-11.57-10.27a4.29,4.29,0,0,1-1.73-3.76V405.69a1.36,1.36,0,0,0-.58-1.3l-3.9-3.47a1.55,1.55,0,0,0-1.59-.14L917,404.25v37.3c0,.58-.15,1.16.43,1.59l3.32,2.89c.87.72,2.31,1.59,3.62,1.16l1.16-.43c1.45-.58,1.73.29.87,1l-13.3,11.42c-.58.58-.72.43-1.16.14l-11.71-10.41c-1.44-1.16-1.44-1.45-1.44-3.33V381.4c0-.72,0-.87-.72-1.45l-1.45-1.3c-1.45-1.3-2-1-3.9-.14l-2.89,1.3c-.43.15-.87-.43-.14-1.16L905,365.79c.58-.58.58-.43,1-.14l9.25,8.53a4.47,4.47,0,0,1,1.74,3.76v24.14l19.23-12.14a1.3,1.3,0,0,1,1.59.14l9.4,8.67a4,4,0,0,1,1.59,3.47v39.61c0,.72,0,.87.72,1.45l3.61,3c1.45,1.3,2,1,3.9.14l2.89-1.3c.43-.15.87.43.14,1.16Z" transform="translate(-206.71 -359.57)"/></svg>