<svg id="Mark" xmlns="http://www.w3.org/2000/svg" viewBox="0 0 84.29 51.67"><defs><style>.cls-1{fill:#039;}.cls-2{fill:#006;}</style></defs><title>Zurich_stac_R_rgb</title><path class="cls-1" d="M42.21,6.76A14.18,14.18,0,0,0,30.94,29.53L42.72,14.05H40.19a19.41,19.41,0,0,0-3.51.27,3.72,3.72,0,0,0-1.44.59,5.68,5.68,0,0,0-1.44,1.72c0,.08-.11.2-.19.36l-.69-.15,1.15-4.45H48.83L37.1,28.07A15.25,15.25,0,0,1,38.78,28c.47,0,1.19,0,2.17.09L43,28.2c.75,0,1.38.07,1.86.07a8,8,0,0,0,2.47-.3,5.55,5.55,0,0,0,1.52-.73,7,7,0,0,0,2.1-2.4c0-.09.13-.23.21-.42l.62.16a9.19,9.19,0,0,1-.62,1.77,7.26,7.26,0,0,1-2.32,3.07,5.68,5.68,0,0,1-3.43,1.13h-.2a24.86,24.86,0,0,1-4.06-.44,30.62,30.62,0,0,0-4.77-.49,14,14,0,0,0-2.31.19,7.45,7.45,0,0,0-2.34.7A14.17,14.17,0,1,0,42.21,6.76Z" transform="translate(-3.21 -6.76)"/><path class="cls-2" d="M13.1,56.11A14.5,14.5,0,0,1,11,56.3H7.81L16,44.6H5.36L4.05,47.45A9.2,9.2,0,0,1,5,47,10,10,0,0,1,7,46.46a12.24,12.24,0,0,1,1.91-.17h2.63L3.21,58H14.94l1.35-3.06a11,11,0,0,1-1,.52A9.52,9.52,0,0,1,13.1,56.11Zm37.9-9a4.62,4.62,0,0,1,.14-1.51,2.4,2.4,0,0,1,.19-.42,1.94,1.94,0,0,1,.51-.55H47.49a2.27,2.27,0,0,1,.5.53,1.64,1.64,0,0,1,.21.44A4.77,4.77,0,0,1,48.34,47c0,.4,0,.67,0,.8v8a3.75,3.75,0,0,1-.21,1.29,1.88,1.88,0,0,1-.22.39,2.93,2.93,0,0,1-.41.47h4.3a1.81,1.81,0,0,1-.42-.47,2.23,2.23,0,0,1-.21-.41A3.56,3.56,0,0,1,51,55.93V47.08Zm13,9a5.94,5.94,0,0,1-2.37.5,4.63,4.63,0,0,1-3.49-1.44,5.35,5.35,0,0,1-1.36-3.71A5.56,5.56,0,0,1,58,47.78a4.43,4.43,0,0,1,1.23-1,5.34,5.34,0,0,1,2.62-.64,6.39,6.39,0,0,1,2.44.49,4.22,4.22,0,0,1,1.11.6V44.72a7.07,7.07,0,0,0-.83-.22,11.32,11.32,0,0,0-2.39-.24,9.83,9.83,0,0,0-3.86.71,7.74,7.74,0,0,0-1.86,1.09,6.81,6.81,0,0,0-2.58,5.48,6.49,6.49,0,0,0,2.48,5.26,8,8,0,0,0,5.06,1.55,12.45,12.45,0,0,0,3.8-.6l.22-.07V55.25c-.33.21-.44.29-.63.4A7.45,7.45,0,0,1,64,56.05Zm16-9a5.32,5.32,0,0,1,.15-1.42,1.76,1.76,0,0,1,.21-.49,1.83,1.83,0,0,1,.54-.56H76.44a1.88,1.88,0,0,1,.5.54,2.23,2.23,0,0,1,.23.47A4.5,4.5,0,0,1,77.3,47v3.26H71.22V47.82c0-.74,0-1.22,0-1.58a2.3,2.3,0,0,1,.1-.59,2.83,2.83,0,0,1,.56-.91l.15-.15H67.74a3.3,3.3,0,0,1,.45.52,2.18,2.18,0,0,1,.23.45A3.7,3.7,0,0,1,68.57,47v8.18a11.4,11.4,0,0,1-.05,1.41,2.25,2.25,0,0,1-.13.53,1.92,1.92,0,0,1-.52.75l-.15.13H72a2.49,2.49,0,0,1-.36-.44,2.6,2.6,0,0,1-.21-.42,2.87,2.87,0,0,1-.2-1.17c0-.28,0-.55,0-.8V51.91H77.3v3.27a10,10,0,0,1-.06,1.37,2.5,2.5,0,0,1-.15.57,2,2,0,0,1-.49.7l-.19.17h4.33a2.87,2.87,0,0,1-.37-.41,2.18,2.18,0,0,1-.25-.45A2.78,2.78,0,0,1,80,55.92c0-.39,0-.62,0-.69V47.07Zm-34.63,10c-.48-.45-.9-.87-1.53-1.56-.4-.43-.73-.79-1-1.09L40.7,52c.26-.08.36-.11.6-.2a5.86,5.86,0,0,0,1.67-1A3.23,3.23,0,0,0,44,49.27a3.32,3.32,0,0,0,.16-1,3.1,3.1,0,0,0-.92-2.2,4.53,4.53,0,0,0-2.2-1.2,11.34,11.34,0,0,0-2.32-.23H34a2.21,2.21,0,0,1,.46.51,1.84,1.84,0,0,1,.24.49A5,5,0,0,1,34.84,47V55.8a3.66,3.66,0,0,1-.15,1.29,1.74,1.74,0,0,1-.24.42A2.87,2.87,0,0,1,34,58H38.3a3.14,3.14,0,0,1-.37-.43,1.78,1.78,0,0,1-.23-.41,3.3,3.3,0,0,1-.18-1.23c0-.2,0-.43,0-.67v-3l2.51,3,.57.65c.29.33.51.57.66.72a6,6,0,0,0,1.4,1.1A2.83,2.83,0,0,0,44,58H46.4c-.23-.18-.32-.25-.49-.4ZM40.15,50.5a4.44,4.44,0,0,1-1.71.54,5.12,5.12,0,0,1-.7.06h-.22v-5h.35a7,7,0,0,1,1.83.22,2.5,2.5,0,0,1,.91.48,2,2,0,0,1,.7,1.65A2.22,2.22,0,0,1,40.79,50,2.73,2.73,0,0,1,40.15,50.5ZM28,45.12a1.83,1.83,0,0,1,.2.46,5,5,0,0,1,.12,1.4v5.09a15,15,0,0,1-.11,2.27,2.5,2.5,0,0,1-2,2.13,4,4,0,0,1-1,.11,3.16,3.16,0,0,1-2.64-1.13A3.93,3.93,0,0,1,22,53V47.85c0-.78,0-1.15,0-1.55a2.9,2.9,0,0,1,.1-.61,3,3,0,0,1,.55-1l.11-.11H18.42a1.82,1.82,0,0,1,.68,1,2.59,2.59,0,0,1,.09.62q0,.2,0,.83v4.61c0,1.42,0,1.79.06,2.36a4.36,4.36,0,0,0,1,2.46A5.88,5.88,0,0,0,25,58.43,8.26,8.26,0,0,0,27.72,58a5.19,5.19,0,0,0,2-1.33,4.39,4.39,0,0,0,1.1-2.6c.06-.61.09-1.34.09-2.39V46.92A4.7,4.7,0,0,1,31,45.7a1.88,1.88,0,0,1,.23-.54,1.79,1.79,0,0,1,.53-.55H27.47A1.74,1.74,0,0,1,28,45.12Zm57.47-3.84h0a.62.62,0,0,0,.59-.61c0-.49-.3-.69-.77-.69h-.68v2.65h.26V41.37H85a.5.5,0,0,1,.58.35l.38.89h.29l-.45-1A.47.47,0,0,0,85.43,41.27Zm-.61-.14V40.2h.27c.36,0,.67,0,.67.46s-.35.48-.66.48Zm.51-2a2.17,2.17,0,1,0,2.17,2.17A2.17,2.17,0,0,0,85.33,39.12Zm0,4.09a1.92,1.92,0,1,1,1.92-1.92A1.92,1.92,0,0,1,85.33,43.21Z" transform="translate(-3.21 -6.76)"/></svg>